<?xml version="1.0" encoding="UTF-8" standalone="no"?>
<svg
   id="svg2"
   height="64"
   viewBox="0 0 157 64"
   width="157"
   version="1.1"
   xmlns:xlink="http://www.w3.org/1999/xlink"
   xmlns="http://www.w3.org/2000/svg">
  <defs
     id="defs15">
    <style
       type="text/css"
       id="current-color-scheme">
            .ColorScheme-Text {
                color:#503278;
                stop-color:#503278;
            }
            .ColorScheme-Background {
                color:#faf0ff;
                stop-color:#faf0ff;
            }
        </style>
    
    <!-- Anime-style gradients -->
    <linearGradient id="kawaii-gradient" x1="0%" y1="0%" x2="0%" y2="100%">
      <stop offset="0%" style="stop-color:#fff0ff;stop-opacity:0.95" />
      <stop offset="50%" style="stop-color:#f5e6ff;stop-opacity:0.9" />
      <stop offset="100%" style="stop-color:#f0dcff;stop-opacity:0.85" />
    </linearGradient>
    
    <linearGradient id="soft-shadow" x1="0%" y1="0%" x2="0%" y2="100%">
      <stop offset="0%" style="stop-color:#e6ccff;stop-opacity:0.3" />
      <stop offset="100%" style="stop-color:#d9b3ff;stop-opacity:0.1" />
    </linearGradient>
    
    <radialGradient id="corner-glow" cx="50%" cy="50%" r="50%">
      <stop offset="0%" style="stop-color:#ff99ff;stop-opacity:0.2" />
      <stop offset="100%" style="stop-color:#ff99ff;stop-opacity:0" />
    </radialGradient>
  </defs>

  <!-- Center panel with anime styling -->
  <rect
     style="fill:url(#kawaii-gradient);stroke:url(#soft-shadow);stroke-width:0.5;rx:8;ry:8"
     id="thick-center"
     width="32"
     height="32"
     x="19"
     y="75"
     class="ColorScheme-Background" />

  <!-- Margin hints -->
  <rect
     style="fill:#ff66ff;fill-opacity:1;stroke:none;rx:2;ry:2"
     id="thick-hint-right-margin"
     width="4"
     height="8"
     x="52"
     y="95" />
  <rect
     style="fill:#ff66ff;fill-opacity:1;stroke:none;rx:2;ry:2"
     id="thick-hint-left-margin"
     width="4"
     height="8"
     x="12"
     y="95" />
  <rect
     style="fill:#ff66ff;fill-opacity:1;stroke:none;rx:2;ry:2"
     id="thick-hint-top-margin"
     width="4"
     height="8"
     x="38"
     y="69" />
  <rect
     style="fill:#ff66ff;fill-opacity:1;stroke:none;rx:2;ry:2"
     id="thick-hint-bottom-margin"
     width="4"
     height="8"
     x="39"
     y="105" />

  <!-- Tile center hint -->
  <rect
     id="hint-tile-center"
     height="5"
     style="fill:#ff9999"
     width="5"
     x="0"
     y="0" />

  <!-- Panel sections with anime styling -->
  <g id="top" transform="translate(6,10)">
    <rect
       height="6"
       style="fill:url(#kawaii-gradient);opacity:0.9;rx:3;ry:3"
       class="ColorScheme-Background"
       width="32"
       x="0"
       y="0" />
    <rect
       style="fill:url(#corner-glow);opacity:0.3"
       height="2"
       width="32"
       x="0"
       y="0" />
  </g>

  <g id="bottom" transform="translate(6,48)">
    <rect
       height="6"
       style="fill:url(#kawaii-gradient);opacity:0.9;rx:3;ry:3"
       class="ColorScheme-Background"
       width="32"
       x="0"
       y="0" />
    <rect
       style="fill:url(#soft-shadow);opacity:0.3"
       height="2"
       width="32"
       x="0"
       y="4" />
  </g>

  <g id="left" transform="translate(0,16)">
    <rect
       height="32"
       style="fill:url(#kawaii-gradient);opacity:0.9;rx:3;ry:3"
       class="ColorScheme-Background"
       width="6"
       x="0"
       y="0" />
    <rect
       style="fill:url(#corner-glow);opacity:0.2"
       height="32"
       width="2"
       x="0"
       y="0" />
  </g>

  <g id="right" transform="translate(38,16)">
    <rect
       height="32"
       style="fill:url(#kawaii-gradient);opacity:0.9;rx:3;ry:3"
       class="ColorScheme-Background"
       width="6"
       x="0"
       y="0" />
    <rect
       style="fill:url(#soft-shadow);opacity:0.2"
       height="32"
       width="2"
       x="4"
       y="0" />
  </g>

  <g id="center" transform="translate(6,16)">
    <rect
       height="32"
       style="fill:url(#kawaii-gradient);opacity:0.95"
       class="ColorScheme-Background"
       width="32"
       x="0"
       y="0" />
  </g>

  <!-- Rounded corners with anime glow -->
  <g id="topleft" transform="translate(0,10)">
    <path
       d="M 0,6 H 6 V 0 C 2.5,0 0,2.5 0,6 Z"
       style="fill:url(#kawaii-gradient);opacity:0.9"
       class="ColorScheme-Background" />
    <circle cx="3" cy="3" r="2" style="fill:url(#corner-glow);opacity:0.3" />
  </g>

  <g id="topright" transform="translate(38,10)">
    <path
       d="M 0,0 V 6 H 6 C 6,2.5 3.5,0 0,0 Z"
       style="fill:url(#kawaii-gradient);opacity:0.9"
       class="ColorScheme-Background" />
    <circle cx="3" cy="3" r="2" style="fill:url(#corner-glow);opacity:0.3" />
  </g>

  <g id="bottomleft" transform="translate(0,48)">
    <path
       d="M 6,6 V 0 H 0 c 0,3.5 2.5,6 6,6 z"
       style="fill:url(#kawaii-gradient);opacity:0.9"
       class="ColorScheme-Background" />
    <circle cx="3" cy="3" r="2" style="fill:url(#corner-glow);opacity:0.3" />
  </g>

  <g id="bottomright" transform="translate(38,48)">
    <path
       d="M 0,6 V 0 H 6 C 6,3.5 3.5,6 0,6 Z"
       style="fill:url(#kawaii-gradient);opacity:0.9"
       class="ColorScheme-Background" />
    <circle cx="3" cy="3" r="2" style="fill:url(#corner-glow);opacity:0.3" />
  </g>

  <!-- Margin hints -->
  <rect
     id="hint-top-margin"
     height="4"
     style="fill:#ff99ff;rx:2;ry:2"
     width="4"
     x="20"
     y="10" />
  <rect
     id="hint-bottom-margin"
     height="4"
     style="fill:#ff99ff;rx:2;ry:2"
     width="4"
     x="20"
     y="50" />
  <rect
     id="hint-right-margin"
     height="4"
     style="fill:#ff99ff;rx:2;ry:2"
     width="4"
     x="40"
     y="30" />
  <rect
     id="hint-left-margin"
     height="4"
     style="fill:#ff99ff;rx:2;ry:2"
     width="4"
     x="0"
     y="30" />

  <!-- Inset hints (minimal) -->
  <rect id="hint-top-inset" height="1" style="fill:#66ff99" width="4" x="20" y="10" />
  <rect id="hint-bottom-inset" height="1" style="fill:#66ff99" width="4" x="20" y="53" />
  <rect id="hint-left-inset" height="4" style="fill:#66ff99" width="1" x="0" y="30" />
  <rect id="hint-right-inset" height="4" style="fill:#66ff99" width="1" x="43" y="30" />

  <!-- Masks (for compatibility) -->
  <rect id="mask-top" height="6" width="32" x="119" y="10" style="fill:url(#kawaii-gradient)" />
  <rect id="mask-center" height="32" width="32" x="119" y="16" style="fill:url(#kawaii-gradient)" />
  <rect id="mask-bottom" height="6" width="32" x="119" y="48" style="fill:url(#kawaii-gradient)" />
  <rect id="mask-left" height="32" width="6" x="113" y="16" style="fill:url(#kawaii-gradient)" />
  <rect id="mask-right" height="32" width="6" x="151" y="16" style="fill:url(#kawaii-gradient)" />

  <!-- Corner masks -->
  <path id="mask-topleft" d="m 113,16 h 6 v -6 c 0,3.5 -2.5,6 -6,6 z" style="fill:url(#kawaii-gradient)" />
  <path id="mask-topright" d="m 151,10 h 6 v 6 c -3.5,0 -6,-2.5 -6,-6 z" style="fill:url(#kawaii-gradient)" />
  <path id="mask-bottomright" d="m 151,48 h 6 v 6 c -3.5,0 -6,-2.5 -6,-6 z" style="fill:url(#kawaii-gradient)" />
  <path id="mask-bottomleft" d="m 113,48 h 6 v 6 c 0,-3.5 -2.5,-6 -6,-6 z" style="fill:url(#kawaii-gradient)" />

  <!-- Main visual panel (the yellow outline from original) -->
  <path
     style="fill:none;stroke:url(#soft-shadow);stroke-width:1.5;stroke-linecap:round;rx:8;ry:8"
     d="m 63,10 h 32 c 4,0 6,2 6,6 v 32 c 0,4 -2,6 -6,6 H 63 c -4,0 -6,-2 -6,-6 V 16 c 0,-4 2,-6 6,-6 z" />
</svg>
